<?xml version="1.0" encoding="UTF-8"?><svg id="Livello_1" xmlns="http://www.w3.org/2000/svg" viewBox="0 0 737.01 737.01"><defs><style>.cls-1{fill:#fff;}.cls-2{fill:#300;}.cls-3{fill:#fff300;}</style></defs><circle class="cls-2" cx="368.5" cy="368.5" r="368.5"/><path class="cls-1" d="M310.73,436.6l-.99,12-1.01,13-.94,12.14-.51,8.2-35.18,5.17-8.56.78-10,.82-17.14,1.02c-16.11.96-31.73.88-47.86.02l-18.05-.97-14.09-.99-11.01-1.04c-15.35-1.45-30.04-4.19-44.9-8.28-20.29-5.58-39.73-15.43-53.04-31.82-19.69-24.25-18.56-57.43,2.63-80.69,10.44-11.46,23.42-19.53,38.84-22.69,4.18-.86,1.82-3.9,2.99-13.54,6.13-50.34,51.2-83.54,99.78-91.41.57,6.57.9,12.71.89,19.23v12.56s-12.75,3.73-12.75,3.73c-9.08,2.66-17.36,7.48-25.34,12.61-10.27,6.6-18.39,15.2-24.72,25.54-10.25,16.73-11.75,34.49-7.53,53.52-9.53-2.11-19.18-.16-27.93,2.78-9.31,3.13-16.54,9.06-22.12,17.13-10.33,14.98-7.19,33.17,6.09,45.35,8.06,7.4,17.52,12.5,27.85,16.12,12.21,4.28,24.3,7.3,37.2,8.89l8.15,1.01,11.98.95c23.34,1.85,51.08-1.33,74.04-6.01,26.39-5.38,50.74-14.56,74.09-28.93-.16,4.76-.48,9.12-.87,13.81Z"/><path class="cls-1" d="M483.05,544.68c-9.11,9.6-17.34,18.49-26.44,26.83l3.06-7.72,26.98-66.09,17.9-42.63-7.11.39-13.98.77-20.02,1.07-16.25.65c-1.28.05-2.77-.1-4.17-.36l17.82-18.68,20.97-21.97,24.96-26.08,21.48-22.49,16.55-17.47,19.86-19.98,1.16.83-9.97,28.16-14.85,41.32-4.51,11.95c-.19.51,1.49,1.81,2.17,1.8l64.9-.42c-1.98,2.94-3.98,5.24-6.31,7.77l-8.11,8.83-11.01,11.98-11.97,13.02-12.52,13.51-14.04,14.97-15.98,17.01-16.47,17.51-12.6,13.41-11.49,12.1Z"/><path class="cls-1" d="M571.87,486.84l-10.59.77,13.09-18.55c1.33-1.89,4.48-2.15,7.13-2.53,38.06-5.38,99.68-21.31,91.81-71.66-5.61-24.5-24.84-38.88-47.95-44.75-9.65-33.19-31.7-53.63-60.83-69.76l-10.82-5.3c-.88-.43-2.37-2.39-2.35-3.38l.41-23.62c22.63,8.28,43.5,20.92,59.25,38.77,13.31,15.64,22.5,35.27,22.95,56.08,22.22,2.71,39.1,10.67,54.05,26.94,19.81,22.63,21.39,54.49,1.01,77.34-24.08,27-69.75,35.39-104.57,38.52l-12.59,1.13Z"/><path class="cls-1" d="M407.09,542.23l-10.44,9.48-10.62,9.72-24.62.3c-3.35.04-5.41-1.29-7.75-3.39l-25.29-22.72-13.76-12.35c2.36-13.2,4.86-26.2,6.03-39.7l1.05-12.05.99-13.99.98-15.99,1.02-20.99,1.04-24.99.98-26,.75-21.99.65-20.14-43.59.66-24.19.27c-3.26.04-8.24-2.83-11.4-4.2l-36.98-16.06c-1.25-.54-2.88-2.87-2.92-4.12l-.33-10.46-1.02-35.98-.94-29-.51-20.72,11.95-5.56,33.01-14.9c2.18-.98,6.82-3.7,9.25-3.71l68.25-.15,2.25-12.34c.33-1.79,2.7-5.6,4.43-5.6l70.21-.05c2.49,0,5.89,2,6.28,4.45l2.15,13.56h70.48s52.13,24,52.13,24l-.23,79.94-.32,18.67-14.94,7.08c-10.49,4.97-20.49,10.47-31.81,13.9-5.61,1.7-13.75.27-19.74.19l-55.25-.72.94,21.99.97,19.97,1.03,21.01.97,18.96,1.01,18.02.99,17,.94,14.96,1.42,19.26,33.93-1.08,21.25-.1-7.32,10.79c-.71,1.05-3.67,1.2-4.83.98l-36.35-6.64-6.47-1.07,1.84,15.99c.9,7.78,2.39,15.12,3.82,23.11.37,2.04-.69,4.21-2.17,5.5l-10.22,8.95-8.96,8.04ZM482.26,294.13l-.7-7.57-.86-14.03-1.02-15.97-1-15.02-.95-14.97-1-17-.47-8.09-25.83.85-31.97.34-28.97-.39-23.06-1.02-22.02-1-16.99-.96-15-1.03-14-1.01-12.98-.94-15.74-.82-1.5,18.09-1.02,14.97-.95,14.01-1.02,14.99-.95,14-1.07,17.01-.97,15.99-.54,8.92,30.83-4.84,11.2-1.67,46.7-6.35,8.1-.82,10.94-1.01,11.95-1.01,14.03-.96,19.04-1.07,51.96-.25c10.45-.05,16.19,2.75,15.81-1.37ZM254.18,306.13l-.53-16.64-.95-28.97-.99-28.96-1.34-24.75-18.69,13,.7,13.74.86,17.99.91,19,1.3,26.97,18.72,8.63ZM509.71,276.53l1.02-22.99.81-19.99.33-9.34c.06-1.62-1.3-4.31-2.66-5.32l-15.02-11.15-.95,33.84-1.07,37.92c-.19,6.74-.65,12.75-.47,19.25l17.75-8.89.26-13.33ZM351.81,349.93l31.03-17.14,8.92-5.08c-3.42.21-5.8.52-8.71,1.21l-10.58,2.53-20.85,5.78.19,12.7ZM351.47,381.92l4.65-2.62,34.89-21.1-.3-1.82-14.6,4.79-24.56,8.53-.09,12.22ZM395.67,478.56l-.96-18.03-1.03-20.99-.98-20-.64-14.66-.72-16.36c-.02-.5-1.2-1.76-1.51-1.75l-38.25,16.24-1.36,39.51-.91,31.01-.92,19.06c-.06,1.21,1.61,2.94,2.63,3.48l21.31,11.29,24.2-13.07-.85-15.74ZM411.62,512.09c-4.35-.53-6.54.16-9.55.84l-23.85,5.22c-3.47.76-7.45.24-10.94-.44l-32.87-6.4c2.16,2.6,4.1,3.88,6.75,5.66l28.22,18.86c.88.59,3.66.87,4.76.16l37.48-23.9Z"/><path class="cls-3" d="M411.62,512.09l-37.48,23.9c-1.1.7-3.88.43-4.76-.16l-28.22-18.86c-2.65-1.77-4.59-3.05-6.75-5.66l32.87,6.4c3.49.68,7.47,1.2,10.94.44l23.85-5.22c3.01-.67,5.2-1.37,9.55-.84Z"/></svg>